<?xml version="1.0" encoding="UTF-8"?>
<svg width="256" height="256" viewBox="0 0 256 256" fill="none" xmlns="http://www.w3.org/2000/svg">
    <rect width="256" height="256" rx="16" fill="#232F3E"/>
    <path d="M128 48C74.98 48 32 90.98 32 144C32 197.02 74.98 240 128 240C181.02 240 224 197.02 224 144C224 90.98 181.02 48 128 48ZM128 80C145.67 80 160 94.33 160 112C160 129.67 145.67 144 128 144C110.33 144 96 129.67 96 112C96 94.33 110.33 80 128 80ZM128 224C106.67 224 87.67 214.67 74.67 200C74.67 176 106.67 164 128 164C149.33 164 181.33 176 181.33 200C168.33 214.67 149.33 224 128 224Z" fill="#FF9900"/>
    <path d="M128 16L152.58 66.42L208 80L168 120L176 176L128 152L80 176L88 120L48 80L103.42 66.42L128 16Z" fill="#FF9900"/>
</svg>
